Format : MPEG-4
Format profile : Base Media
Codec ID : isom
File size : 260 MiB
Duration : 20mn 0s
Overall bit rate mode : Variable
Overall bit rate : 1 815 Kbps

Video
ID : 1
Format : AVC
Format/Info : Advanced Video Codec
Format profile : High@L3.1
Format settings, CABAC : Yes
Format settings, ReFrames : 4 frames
Codec ID : avc1
Codec ID/Info : Advanced Video Coding
Duration : 20mn 0s
Bit rate mode : Variable
Bit rate : 1 761 Kbps
Width : 1 280 pixels
Height : 720 pixels
Display aspect ratio : 16:9
Frame rate mode : Constant
Frame rate : 25.000 fps
Color space : YUV
Chroma subsampling : 4:2:0
Bit depth : 8 bits
Scan type : Progressive
Bits/(Pixel*Frame) : 0.076
Stream size : 252 MiB (97%)

Audio
ID : 2
Format : AAC
Format/Info : Advanced Audio Codec
Format profile : LC
Codec ID : 40
Duration : 20mn 0s
Bit rate mode : Variable
Bit rate : 48.0 Kbps
Channel(s) : 2 channels
Channel positions : Front: L R
Sampling rate : 44.1 KHz
Compression mode : Lossy
Delay relative to video : -2ms
Stream size : 7.00 MiB (3%)

SCREENSHOT....
 
http://www.pixsor.com/share-48A8_5030640A.html